<svg width="72" height="72" viewBox="0 0 72 72" fill="none" xmlns="http://www.w3.org/2000/svg">
<rect width="72" height="72" rx="8" fill="#EA580C"/>
<path d="M22.186 43.9535C19.2558 46.4149 18.2791 53.7209 18.2791 53.7209C18.2791 53.7209 25.5851 52.7442 28.0465 49.8139C29.4335 48.173 29.414 45.653 27.8707 44.1293C27.1114 43.4046 26.1112 42.9858 25.062 42.9533C24.0129 42.9209 22.9887 43.277 22.186 43.9535Z" stroke="white" stroke-width="4" stroke-linecap="round" stroke-linejoin="round"/>
<path d="M36.8372 41.0232L30.9767 35.1628C32.0163 32.4659 33.3252 29.8807 34.8837 27.4465C37.1599 23.8071 40.3293 20.8106 44.0905 18.7419C47.8517 16.6733 52.0796 15.6013 56.3721 15.6279C56.3721 20.9414 54.8484 30.2791 44.6512 37.1163C42.1837 38.6766 39.5659 39.9854 36.8372 41.0232Z" stroke="white" stroke-width="4" stroke-linecap="round" stroke-linejoin="round"/>
<path d="M30.9767 35.1628H21.2093C21.2093 35.1628 22.2837 29.2437 25.1163 27.3488C28.2809 25.2391 34.8837 27.3488 34.8837 27.3488" stroke="white" stroke-width="4" stroke-linecap="round" stroke-linejoin="round"/>
<path d="M36.8372 41.0232V50.7907C36.8372 50.7907 42.7563 49.7163 44.6512 46.8837C46.7609 43.7191 44.6512 37.1163 44.6512 37.1163" stroke="white" stroke-width="4" stroke-linecap="round" stroke-linejoin="round"/>
</svg>
