<svg width="43" height="43" viewBox="0 0 43 43" fill="none" xmlns="http://www.w3.org/2000/svg">
<rect width="43" height="43" fill="white"/>
<path d="M14.5 25.5C13 26.76 12.5 30.5 12.5 30.5C12.5 30.5 16.24 30 17.5 28.5C18.21 27.66 18.2 26.37 17.41 25.59C17.0213 25.219 16.5093 25.0046 15.9722 24.988C15.4352 24.9714 14.9109 25.1537 14.5 25.5Z" stroke="#EA580C" stroke-width="2" stroke-linecap="round" stroke-linejoin="round"/>
<path d="M22 24L19 21C19.5321 19.6194 20.2022 18.2961 21 17.05C22.1652 15.187 23.7876 13.6531 25.713 12.5941C27.6384 11.5351 29.8027 10.9864 32 11C32 13.72 31.22 18.5 26 22C24.7369 22.7987 23.3968 23.4687 22 24Z" stroke="#EA580C" stroke-width="2" stroke-linecap="round" stroke-linejoin="round"/>
<path d="M19 21H14C14 21 14.55 17.97 16 17C17.62 15.92 21 17 21 17" stroke="#EA580C" stroke-width="2" stroke-linecap="round" stroke-linejoin="round"/>
<path d="M22 24V29C22 29 25.03 28.45 26 27C27.08 25.38 26 22 26 22" stroke="#EA580C" stroke-width="2" stroke-linecap="round" stroke-linejoin="round"/>
</svg>
